# xmcd CD database file
#
# Track frame offsets:
#	150
#	12317
#	25907
#	40978
#	56742
#	79387
#	96133
#	112416
#	124550
#	145898
#	154372
#	168391
#	183148
#	198789
#	211042
#
# Disc length: 2975 seconds
#
# Revision: 0
# Processed by: cddbd v1.5.1PL0 Copyright (c) Steve Scherf et al.
# Submitted via: CDex 1.50Beta7
#
DISCID=cc0b9d0f
DTITLE=El Gran Combo - 15 Grandes Exitos Vol.1
DYEAR=1998
DGENRE=Salsa
TTITLE0=Gran Combo Boogaloo
TTITLE1=Ojos Chinos
TTITLE2=Jala Jala
TTITLE3=Eso No Es Dificil Na'
TTITLE4=Falsaria
TTITLE5=Pata Pata
TTITLE6=Tu Quieres Boogaloo
TTITLE7=Acangana
TTITLE8=Serrana
TTITLE9=Masculino y Femenino
TTITLE10=Lo Que Dios me Dio
TTITLE11=A Mi Manera
TTITLE12=Los Muñequitos
TTITLE13=El Caballo Pelotero
TTITLE14=Que Me Importa 
EXTD=YEAR: 1998
EXTT0=
EXTT1=
EXTT2=
EXTT3=
EXTT4=
EXTT5=
EXTT6=
EXTT7=
EXTT8=
EXTT9=
EXTT10=
EXTT11=
EXTT12=
EXTT13=
EXTT14=
PLAYORDER=
